<svg t="1692875446571" class="icon" viewBox="0 0 1024 1024" version="1.1" xmlns="http://www.w3.org/2000/svg" p-id="4905" width="32" height="32"><path d="M747.84768 188.416h49.152c12.288 0 20.48-8.192 20.48-16.384s-8.192-16.384-20.48-16.384h-49.152c-12.288 0-20.48 8.192-20.48 16.384 4.096 12.288 12.288 16.384 20.48 16.384z m49.152 86.016c12.288 0 16.384-4.096 20.48-12.288 4.096-12.288-4.096-20.48-20.48-20.48h-57.344c-8.192 4.096-12.288 8.192-12.288 16.384s8.192 12.288 20.48 12.288h24.576l24.576 4.096z m-225.28 393.216c-4.096 0-4.096-4.096-4.096-8.192V233.472c0-12.288-8.192-24.576-20.48-32.768-20.48-12.288-40.96-12.288-65.536-8.192-20.48 4.096-36.864 16.384-36.864 40.96V655.36c0 4.096 0 4.096-4.096 8.192-73.728 28.672-102.4 94.208-77.824 155.648 28.672 61.44 114.688 94.208 188.416 73.728 69.632-20.48 114.688-73.728 106.496-135.168-8.192-36.864-36.864-69.632-86.016-90.112z" fill="#697C89" p-id="4906"></path><path d="M801.09568 741.376c-8.192-53.248-40.96-98.304-86.016-139.264-4.096-4.096-4.096-4.096-4.096-8.192V139.264c0-24.576-8.192-49.152-28.672-69.632-20.48-24.576-49.152-40.96-86.016-53.248-73.728-24.576-147.456-20.48-217.088 12.288-24.576 12.288-40.96 24.576-57.344 45.056-16.384 20.48-24.576 45.056-24.576 69.632v450.56c0 4.096 0 8.192-4.096 8.192-73.728 65.536-102.4 139.264-81.92 225.28 32.768 126.976 180.224 208.896 335.872 192.512 57.344-8.192 110.592-24.576 155.648-61.44 77.824-53.248 110.592-126.976 98.304-217.088z m-81.92 69.632c-12.288 49.152-40.96 90.112-94.208 118.784-28.672 16.384-57.344 24.576-94.208 28.672-61.44 8.192-118.784-8.192-167.936-40.96-40.96-28.672-65.536-61.44-77.824-102.4-16.384-69.632 8.192-126.976 73.728-172.032 4.096-4.096 12.288-8.192 16.384-12.288 4.096-4.096 0-12.288 0-16.384V147.456c0-24.576 12.288-45.056 40.96-57.344 32.768-16.384 65.536-20.48 102.4-20.48 28.672 4.096 53.248 8.192 77.824 24.576 20.48 12.288 32.768 28.672 32.768 53.248v479.232c0 4.096 0 8.192 4.096 12.288 32.768 20.48 57.344 45.056 69.632 73.728 20.48 28.672 24.576 61.44 16.384 98.304z" fill="#697C89" p-id="4907"></path><path d="M796.99968 315.392h-49.152c-12.288 0-20.48 8.192-20.48 16.384s8.192 16.384 20.48 16.384h49.152c12.288 0 20.48-8.192 20.48-16.384s-8.192-16.384-20.48-16.384z m0 77.824h-49.152c-12.288 0-20.48 8.192-20.48 16.384s8.192 16.384 20.48 16.384h49.152c12.288 0 20.48-8.192 20.48-16.384 0-12.288-8.192-16.384-20.48-16.384z" fill="#697C89" p-id="4908"></path></svg>